<svg width="56" height="56" viewBox="0 0 32 32" fill="none" xmlns="http://www.w3.org/2000/svg">
<path d="M16 3C15.375 3 14.754 3.21 14.219 3.594L12.563 4.75L10.655 5H10.624L10.593 5.031C9.96723 5.17231 9.39433 5.48809 8.94071 5.94171C8.48708 6.39534 8.17131 6.96824 8.02999 7.594L7.99999 7.625V7.656L7.74999 9.594L6.59399 11.094L6.56199 11.125V11.156C5.86299 12.273 5.83199 13.715 6.59399 14.781L7.78099 16.437L8.09399 18.157L4.87499 23.062L3.84399 24.594H8.62499L9.78099 27.281L10.5 29L11.531 27.437L14.687 22.687C15.535 23.035 16.492 23.067 17.313 22.687L20.469 27.437L21.5 29L22.219 27.281L23.375 24.594H28.156L27.125 23.062L24 18.313L24.25 16.438L25.406 14.782L25.438 14.751V14.72C26.137 13.603 26.168 12.192 25.406 11.126L24.25 9.469L23.875 7.594H23.906C23.902 7.57 23.879 7.554 23.875 7.531C23.695 6.223 22.66 5.161 21.344 5H21.312L19.437 4.75L17.781 3.594C17.2638 3.21512 16.6411 3.00743 16 3ZM16 5.031C16.23 5.031 16.457 5.101 16.625 5.219L18.406 6.5L18.625 6.656L18.875 6.688L21.063 7H21.093C21.543 7.05 21.855 7.363 21.906 7.813V7.875L22.313 10.094L22.343 10.313L22.5 10.5L23.781 12.281C24.02 12.613 24.051 13.176 23.75 13.656L22.344 15.625L22.312 15.875L22 18.063V18.093C21.9834 18.2493 21.9299 18.3994 21.844 18.531L21.781 18.563V18.593C21.6324 18.7715 21.4192 18.884 21.188 18.906H21.125L18.844 19.313L18.594 19.343L18.406 19.5L16.625 20.781C16.293 21.02 15.699 21.051 15.219 20.75L13.594 19.5L13.406 19.344L13.125 19.312L10.937 19H10.907C10.7656 18.9875 10.6293 18.9412 10.5095 18.865C10.3898 18.7887 10.2901 18.6848 10.219 18.562C10.1525 18.4467 10.11 18.3191 10.094 18.187V18.125L9.68799 15.844L9.65599 15.594L9.49999 15.406L8.21899 13.625C7.97999 13.293 7.94899 12.699 8.24999 12.219L9.49999 10.594L9.65599 10.406L9.68699 10.125L9.96899 8.031C9.97299 8.016 9.99599 8.016 9.99999 8C10.0623 7.75928 10.1879 7.53961 10.3638 7.36377C10.5396 7.18794 10.7593 7.06234 11 7C11.016 6.996 11.016 6.973 11.031 6.969L13.125 6.687L13.375 6.657L13.594 6.5L15.375 5.219C15.543 5.102 15.77 5.031 16 5.031ZM22.906 20.25L24.438 22.594H22.03L21.78 23.219L21.093 24.812L18.968 21.562L19.436 21.219L21.406 20.875V20.906C21.429 20.902 21.444 20.879 21.468 20.875C21.9943 20.7991 22.4916 20.5832 22.906 20.25ZM9.09399 20.281C9.52822 20.6758 10.0737 20.9269 10.656 21H10.687L12.594 21.25L13.031 21.594L10.906 24.812L10.219 23.219L9.96899 22.594H7.56299L9.09399 20.281Z" fill="#ff8c00"/>
</svg>
